<svg width="144" height="144" viewBox="0 0 144 144" fill="none" xmlns="http://www.w3.org/2000/svg">
<g filter="url(#filter0_d_18_874)">
<rect x="12" y="8" width="120" height="120" rx="60" fill="black"/>
<path d="M88.7322 56.3221C94.1339 60.1972 100.751 62.4773 107.898 62.4773V48.6751C106.546 48.6754 105.197 48.5339 103.873 48.2525V59.1168C96.7268 59.1168 90.1103 56.8367 84.7072 52.9619V81.128C84.7072 95.2182 73.3255 106.64 59.2863 106.64C54.0479 106.64 49.1791 105.05 45.1345 102.325C49.7507 107.061 56.1883 110 63.3104 110C77.3505 110 88.7328 98.5784 88.7328 84.4877V56.3221H88.7322V56.3221ZM93.6975 42.3975C90.9369 39.3708 89.1244 35.4594 88.7322 31.1351V29.3599H84.9179C85.878 34.856 89.1528 39.5516 93.6975 42.3975ZM54.0143 91.5123C52.472 89.4828 51.6385 87.0001 51.6422 84.4473C51.6422 78.003 56.8481 72.7779 63.2708 72.7779C64.4678 72.7776 65.6576 72.9615 66.7983 73.3248V59.2142C65.4652 59.0308 64.1198 58.953 62.775 58.9815V69.9646C61.6334 69.6013 60.4431 69.4168 59.2458 69.418C52.8231 69.418 47.6175 74.6425 47.6175 81.0877C47.6175 85.6449 50.2196 89.5903 54.0143 91.5123Z" fill="#FF004F"/>
<path d="M84.707 52.9616C90.1102 56.8364 96.7267 59.1165 103.873 59.1165V48.2522C99.8841 47.3995 96.3526 45.3074 93.6974 42.3975C89.1524 39.5513 85.8779 34.8557 84.9178 29.3599H74.8987V84.4871C74.876 90.9138 69.679 96.1176 63.2701 96.1176C59.4934 96.1176 56.1382 94.3109 54.0133 91.5123C50.2188 89.5903 47.6167 85.6446 47.6167 81.088C47.6167 74.6434 52.8224 69.4183 59.2451 69.4183C60.4756 69.4183 61.6617 69.6105 62.7743 69.9648V58.9818C48.9817 59.2678 37.8891 70.5777 37.8891 84.4874C37.8891 91.431 40.6514 97.7256 45.1347 102.325C49.1792 105.05 54.0481 106.64 59.2864 106.64C73.3259 106.64 84.7073 95.2179 84.7073 81.128V52.9616H84.707Z" fill="white"/>
<path d="M103.873 48.2523V45.3147C100.276 45.3202 96.7495 44.3092 93.6975 42.3973C96.3992 45.3657 99.9568 47.4125 103.873 48.2523ZM84.9179 29.3599C84.8263 28.8347 84.7559 28.306 84.7071 27.7752V26H70.8735V81.1278C70.8514 87.5536 65.6546 92.7574 59.2451 92.7574C57.3634 92.7574 55.5868 92.3092 54.0134 91.5126C56.1383 94.311 59.4935 96.1174 63.2702 96.1174C69.6785 96.1174 74.8764 90.9142 74.8988 84.4875V29.3599H84.9179ZM62.7749 58.9819V55.8546C61.619 55.696 60.4536 55.6165 59.2868 55.6171C45.2461 55.6168 33.8644 67.0388 33.8644 81.1278C33.8644 89.9608 38.3376 97.7453 45.135 102.324C40.6518 97.7254 37.8895 91.4305 37.8895 84.4872C37.8895 70.5778 48.9818 59.2679 62.7749 58.9819Z" fill="#00F2EA"/>
<rect x="8" y="4" width="128" height="128" rx="64" stroke="black" stroke-width="8"/>
</g>
<defs>
<filter id="filter0_d_18_874" x="0" y="0" width="144" height="144" filterUnits="userSpaceOnUse" color-interpolation-filters="sRGB">
<feFlood flood-opacity="0" result="BackgroundImageFix"/>
<feColorMatrix in="SourceAlpha" type="matrix" values="0 0 0 0 0 0 0 0 0 0 0 0 0 0 0 0 0 0 127 0" result="hardAlpha"/>
<feOffset dy="4"/>
<feGaussianBlur stdDeviation="2"/>
<feComposite in2="hardAlpha" operator="out"/>
<feColorMatrix type="matrix" values="0 0 0 0 0 0 0 0 0 0 0 0 0 0 0 0 0 0 0.25 0"/>
<feBlend mode="normal" in2="BackgroundImageFix" result="effect1_dropShadow_18_874"/>
<feBlend mode="normal" in="SourceGraphic" in2="effect1_dropShadow_18_874" result="shape"/>
</filter>
</defs>
</svg>
